<mxfile host="app.diagrams.net" modified="2023-03-26T05:15:14.917Z" agent="Mozilla/5.0 (Windows NT 10.0; Win64; x64) AppleWebKit/537.36 (KHTML, like Gecko) Chrome/111.0.0.0 Safari/537.36" version="21.1.1" etag="_OYZdC032wdVIYK1dUA5" type="github">
  <diagram name="第 1 页" id="vTb_ymfJR3okeUs_Iz1b">
    <mxGraphModel>
      <root>
        <mxCell id="0" />
        <mxCell id="1" parent="0" />
      </root>
    </mxGraphModel>
  </diagram>
</mxfile>
